<?xml version="1.0" encoding="UTF-8"?>
<svg width="22px" height="22px" viewBox="0 0 22 22" version="1.1" xmlns="http://www.w3.org/2000/svg" xmlns:xlink="http://www.w3.org/1999/xlink">
    <!-- Generator: sketchtool 42 (36781) - http://www.bohemiancoding.com/sketch -->
    <title>二维码</title>
    <desc>Created with sketchtool.</desc>
    <defs></defs>
    <g id="Page-1" stroke="none" stroke-width="1" fill="none" fill-rule="evenodd">
        <g id="二维码" fill="#333333">
            <path d="M0,0 L10,0 L10,10 L0,10 L0,0 Z M3,3 L3,7 L7,7 L7,3 L3,3 Z" id="Rectangle-31"></path>
            <path d="M0,12 L10,12 L10,22 L0,22 L0,12 Z M3,15 L3,19 L7,19 L7,15 L3,15 Z" id="Rectangle-31-Copy-2"></path>
            <rect id="Rectangle-31-Copy-3" x="12" y="12" width="4" height="5"></rect>
            <rect id="Rectangle-31-Copy-6" x="12" y="18" width="4" height="4"></rect>
            <rect id="Rectangle-31-Copy-7" x="17" y="12" width="5" height="3"></rect>
            <rect id="Rectangle-31-Copy-4" x="17" y="12" width="2" height="10"></rect>
            <rect id="Rectangle-31-Copy-5" x="20" y="12" width="2" height="10"></rect>
            <path d="M12,0 L22,0 L22,10 L12,10 L12,0 Z M15,3 L15,7 L19,7 L19,3 L15,3 Z" id="Rectangle-31-Copy"></path>
        </g>
    </g>
</svg>