<?xml version="1.0" encoding="UTF-8"?>
<svg width="22px" height="22px" viewBox="0 0 22 22" version="1.1" xmlns="http://www.w3.org/2000/svg" xmlns:xlink="http://www.w3.org/1999/xlink">
    <!-- Generator: sketchtool 42 (36781) - http://www.bohemiancoding.com/sketch -->
    <title>二维码失效</title>
    <desc>Created with sketchtool.</desc>
    <defs></defs>
    <g id="Page-1" stroke="none" stroke-width="1" fill="none" fill-rule="evenodd">
        <g id="二维码失效" fill="#333333">
            <path d="M10,9.05882353 L10,9.05882353 L9.27272727,10 L0,10 L0,0 L10,0 L10,9.05882353 Z M3,3 L3,7 L7,7 L7,3 L3,3 Z" id="Combined-Shape"></path>
            <path d="M3,18.1176471 L0,22 L5,22 L10,15.5294118 L10,22 L0,22 L0,12 L7.72727273,12 L5.40909091,15 L3,15 L3,18.1176471 Z" id="Combined-Shape"></path>
            <path d="M12.7272727,12 L16,12 L16,17 L12,17 L12,12.9411765 L12.7272727,12 Z" id="Combined-Shape"></path>
            <rect id="Rectangle-31-Copy-6" x="12" y="18" width="4" height="4"></rect>
            <rect id="Rectangle-31-Copy-7" x="17" y="12" width="5" height="3"></rect>
            <rect id="Rectangle-31-Copy-4" x="17" y="12" width="2" height="10"></rect>
            <rect id="Rectangle-31-Copy-5" x="20" y="12" width="2" height="10"></rect>
            <path d="M19,3.88235294 L22,0 L17,0 L12,6.47058824 L12,0 L22,0 L22,10 L14.2727273,10 L16.5909091,7 L19,7 L19,3.88235294 Z" id="Combined-Shape"></path>
        </g>
    </g>
</svg>