<?xml version="1.0" encoding="UTF-8"?>
<svg width="20px" height="20px" viewBox="0 0 20 20" version="1.1" xmlns="http://www.w3.org/2000/svg" xmlns:xlink="http://www.w3.org/1999/xlink">
    <!-- Generator: sketchtool 42 (36781) - http://www.bohemiancoding.com/sketch -->
    <title>兑换</title>
    <desc>Created with sketchtool.</desc>
    <defs></defs>
    <g id="Page-1" stroke="none" stroke-width="1" fill="none" fill-rule="evenodd">
        <g id="兑换">
            <g id="messgae">
                <rect id="Rectangle-244" opacity="0.484608209" x="0" y="0" width="20" height="20"></rect>
                <path d="M10,9.5 C5.89446379,9.5 2.5,7.5603064 2.5,5 C2.5,2.4396936 5.89446379,0.5 10,0.5 C14.1055362,0.5 17.5,2.4396936 17.5,5 C17.5,7.5603064 14.1055362,9.5 10,9.5 Z M10,8.5 C13.6264503,8.5 16.5,6.85797159 16.5,5 C16.5,3.14202841 13.6264503,1.5 10,1.5 C6.37354971,1.5 3.5,3.14202841 3.5,5 C3.5,6.85797159 6.37354971,8.5 10,8.5 Z" id="Oval" fill="#333333" fill-rule="nonzero"></path>
                <path d="M4.55343785,8.1144737 C4.25217966,7.92530127 3.97828113,7.71982521 3.73571823,7.5 C2.95593765,8.20668445 2.5,9.06166249 2.5,10 C2.5,12.5603064 5.89446379,14.5 10,14.5 C14.1055362,14.5 17.5,12.5603064 17.5,10 C17.5,9.06166249 17.0440624,8.20668445 16.2642818,7.5 C16.0217189,7.71982521 15.7478203,7.92530127 15.4465621,8.1144737 C16.1140605,8.66718407 16.5,9.31909063 16.5,10 C16.5,11.8579716 13.6264503,13.5 10,13.5 C6.37354971,13.5 3.5,11.8579716 3.5,10 C3.5,9.31909063 3.88593946,8.66718407 4.55343785,8.1144737 L4.55343785,8.1144737 Z" id="Combined-Shape" fill="#333333" fill-rule="nonzero"></path>
                <path d="M4.55343785,13.1144737 C4.25217966,12.9253013 3.97828113,12.7198252 3.73571823,12.5 C2.95593765,13.2066845 2.5,14.0616625 2.5,15 C2.5,17.5603064 5.89446379,19.5 10,19.5 C14.1055362,19.5 17.5,17.5603064 17.5,15 C17.5,14.0616625 17.0440624,13.2066845 16.2642818,12.5 C16.0217189,12.7198252 15.7478203,12.9253013 15.4465621,13.1144737 C16.1140605,13.6671841 16.5,14.3190906 16.5,15 C16.5,16.8579716 13.6264503,18.5 10,18.5 C6.37354971,18.5 3.5,16.8579716 3.5,15 C3.5,14.3190906 3.88593946,13.6671841 4.55343785,13.1144737 L4.55343785,13.1144737 Z" id="Combined-Shape" fill="#333333"></path>
            </g>
        </g>
    </g>
</svg>