<?xml version="1.0" encoding="UTF-8"?>
<svg width="22px" height="22px" viewBox="0 0 22 22" version="1.1" xmlns="http://www.w3.org/2000/svg" xmlns:xlink="http://www.w3.org/1999/xlink">
    <!-- Generator: sketchtool 42 (36781) - http://www.bohemiancoding.com/sketch -->
    <title>关闭</title>
    <desc>Created with sketchtool.</desc>
    <defs></defs>
    <g id="Page-1" stroke="none" stroke-width="1" fill="none" fill-rule="evenodd">
        <g id="关闭" fill-rule="nonzero" fill="#333333">
            <path d="M11,20 C15.9705627,20 20,15.9705627 20,11 C20,6.02943725 15.9705627,2 11,2 C6.02943725,2 2,6.02943725 2,11 C2,15.9705627 6.02943725,20 11,20 Z M11,21 C5.4771525,21 1,16.5228475 1,11 C1,5.4771525 5.4771525,1 11,1 C16.5228475,1 21,5.4771525 21,11 C21,16.5228475 16.5228475,21 11,21 Z" id="Oval-70"></path>
            <path d="M11.0355339,10.3284271 L7.85355339,7.14644661 C7.65829124,6.95118446 7.34170876,6.95118446 7.14644661,7.14644661 C6.95118446,7.34170876 6.95118446,7.65829124 7.14644661,7.85355339 L10.3284271,11.0355339 L7.14644661,14.2175144 C6.95118446,14.4127766 6.95118446,14.7293591 7.14644661,14.9246212 C7.34170876,15.1198833 7.65829124,15.1198833 7.85355339,14.9246212 L11.0355339,11.7426407 L14.2175144,14.9246212 C14.4127766,15.1198833 14.7293591,15.1198833 14.9246212,14.9246212 C15.1198833,14.7293591 15.1198833,14.4127766 14.9246212,14.2175144 L11.7426407,11.0355339 L14.9246212,7.85355339 C15.1198833,7.65829124 15.1198833,7.34170876 14.9246212,7.14644661 C14.7293591,6.95118446 14.4127766,6.95118446 14.2175144,7.14644661 L11.0355339,10.3284271 Z" id="Combined-Shape"></path>
        </g>
    </g>
</svg>