<?xml version="1.0" encoding="UTF-8"?>
<svg width="16px" height="16px" viewBox="0 0 16 16" version="1.1" xmlns="http://www.w3.org/2000/svg" xmlns:xlink="http://www.w3.org/1999/xlink">
    <!-- Generator: sketchtool 42 (36781) - http://www.bohemiancoding.com/sketch -->
    <title>其他分店</title>
    <desc>Created with sketchtool.</desc>
    <defs></defs>
    <g id="Page-1" stroke="none" stroke-width="1" fill="none" fill-rule="evenodd">
        <g id="其他分店" fill-rule="nonzero" fill="#333333">
            <path d="M8.62607717,14.6022095 C9.38983315,14.1981058 10.1540814,13.7031641 10.863435,13.1176659 C12.8399128,11.4862873 14,9.49756642 14,7.11111111 C14,3.73254326 11.3101527,1 8,1 C4.68984727,1 2,3.73254326 2,7.11111111 C2,9.49756642 3.1600872,11.4862873 5.13656504,13.1176659 C5.84591862,13.7031641 6.61016685,14.1981058 7.37392283,14.6022095 C7.61617374,14.7303845 7.8276888,14.8339496 8,14.9132241 C8.1723112,14.8339496 8.38382626,14.7303845 8.62607717,14.6022095 Z M8,16 C8,16 1,13.3333333 1,7.11111111 C1,3.18375289 4.13400675,0 8,0 C11.8659932,0 15,3.18375289 15,7.11111111 C15,13.3333333 8,16 8,16 Z" id="Oval-9"></path>
            <path d="M8,9 C9.1045695,9 10,8.1045695 10,7 C10,5.8954305 9.1045695,5 8,5 C6.8954305,5 6,5.8954305 6,7 C6,8.1045695 6.8954305,9 8,9 Z M8,10 C6.34314575,10 5,8.65685425 5,7 C5,5.34314575 6.34314575,4 8,4 C9.65685425,4 11,5.34314575 11,7 C11,8.65685425 9.65685425,10 8,10 Z" id="Oval-10"></path>
        </g>
    </g>
</svg>