<?xml version="1.0" encoding="UTF-8"?>
<svg width="12px" height="10px" viewBox="0 0 12 10" version="1.1" xmlns="http://www.w3.org/2000/svg" xmlns:xlink="http://www.w3.org/1999/xlink">
    <!-- Generator: sketchtool 42 (36781) - http://www.bohemiancoding.com/sketch -->
    <title>喜欢2</title>
    <desc>Created with sketchtool.</desc>
    <defs></defs>
    <g id="Page-1" stroke="none" stroke-width="1" fill="none" fill-rule="evenodd">
        <path d="M5.55681713,2.05849714 C7.6789349,-1.51874916 12,-0.100726113 12,3.75770272 C12,5.79774283 10.8697035,7.40892752 9.02401249,8.62816425 C8.3934122,9.04472966 7.72111603,9.38599524 7.04899178,9.65862873 C6.81359179,9.75411394 6.59451803,9.8343838 6.39703124,9.90010446 C6.27623675,9.94030306 6.1877833,9.96716171 6.13695744,9.981299 C6.04446837,10.007025 5.94673367,10.0061935 5.85468467,9.9788976 C5.80416387,9.96391631 5.71602295,9.93558608 5.59555129,9.89343821 C5.39845815,9.82448377 5.17978633,9.74080473 4.94479975,9.64188697 C4.27382747,9.35944072 3.60269084,9.01012641 2.97324732,8.5885389 C1.12930909,7.35350937 0,5.7541135 0,3.75770272 C0,-0.0994372275 4.26872797,-1.50008307 6.43964085,2.05261444 L5.55681713,2.05849714 Z" id="喜欢2" fill="#333333" fill-rule="nonzero"></path>
    </g>
</svg>