<?xml version="1.0" encoding="UTF-8"?>
<svg width="12px" height="10px" viewBox="0 0 12 10" version="1.1" xmlns="http://www.w3.org/2000/svg" xmlns:xlink="http://www.w3.org/1999/xlink">
    <!-- Generator: sketchtool 42 (36781) - http://www.bohemiancoding.com/sketch -->
    <title>喜欢</title>
    <desc>Created with sketchtool.</desc>
    <defs></defs>
    <g id="Page-1" stroke="none" stroke-width="1" fill="none" fill-rule="evenodd">
        <path d="M10.9660574,3.75770272 C10.9660574,5.38723006 10.0402182,6.70697061 8.45901623,7.75148967 C7.89020399,8.12723878 7.2774153,8.43829766 6.66445469,8.68693263 C6.29825003,8.83547608 6.0166171,8.92919932 5.86304256,8.97191633 L6.14531533,8.97431774 C5.99105732,8.92857454 5.70871615,8.82979547 5.34175378,8.67532241 C4.7276412,8.41681129 4.11369297,8.09726249 3.54372396,7.71550971 C1.96076924,6.65528123 1.03394256,5.3426532 1.03394256,3.75770272 C1.03394256,0.928245574 3.95175516,-0.0291408228 5.56035915,2.60333854 C5.764008,2.93660975 6.24388468,2.93341208 6.44318287,2.59745583 C8.00854901,-0.0412762349 10.9660574,0.929275014 10.9660574,3.75770272 L10.9660574,3.75770272 Z M12,3.75770272 C12,-0.100726113 7.6789349,-1.51874916 5.55681713,2.05849714 L6.43964085,2.05261444 C4.26872797,-1.50008307 0,-0.0994372275 0,3.75770272 C0,5.7541135 1.12930909,7.35350937 2.97324732,8.5885389 C3.60269084,9.01012641 4.27382747,9.35944072 4.94479975,9.64188697 C5.17978633,9.74080473 5.39845815,9.82448377 5.59555129,9.89343821 C5.71602295,9.93558608 5.80416387,9.96391631 5.85468467,9.9788976 C5.94673367,10.0061935 6.04446837,10.007025 6.13695744,9.981299 C6.1877833,9.96716171 6.27623675,9.94030306 6.39703124,9.90010446 C6.59451803,9.8343838 6.81359179,9.75411394 7.04899178,9.65862873 C7.72111603,9.38599524 8.3934122,9.04472966 9.02401249,8.62816425 C10.8697035,7.40892752 12,5.79774283 12,3.75770272 L12,3.75770272 Z" id="喜欢" fill="#333333" fill-rule="nonzero"></path>
    </g>
</svg>