<?xml version="1.0" encoding="UTF-8"?>
<svg width="22px" height="22px" viewBox="0 0 22 22" version="1.1" xmlns="http://www.w3.org/2000/svg" xmlns:xlink="http://www.w3.org/1999/xlink">
    <!-- Generator: sketchtool 42 (36781) - http://www.bohemiancoding.com/sketch -->
    <title>复选不改</title>
    <desc>Created with sketchtool.</desc>
    <defs></defs>
    <g id="Page-1" stroke="none" stroke-width="1" fill="none" fill-rule="evenodd" opacity="0.400000006">
        <g id="复选不改">
            <ellipse id="Oval-71" cx="11" cy="11" rx="11" ry="11"></ellipse>
            <path d="M3,3.99508929 L3,18.0049107 C3,18.5548349 3.44525903,19 3.99508929,19 L18.0049107,19 C18.5548349,19 19,18.554741 19,18.0049107 L19,3.99508929 C19,3.44516513 18.554741,3 18.0049107,3 L3.99508929,3 C3.44516513,3 3,3.44525903 3,3.99508929 Z M2,3.99508929 C2,2.8932319 2.8926228,2 3.99508929,2 L18.0049107,2 C19.1067681,2 20,2.8926228 20,3.99508929 L20,18.0049107 C20,19.1067681 19.1073772,20 18.0049107,20 L3.99508929,20 C2.8932319,20 2,19.1073772 2,18.0049107 L2,3.99508929 Z" id="Rectangle-2" fill="#333333" fill-rule="nonzero"></path>
        </g>
    </g>
</svg>