<?xml version="1.0" encoding="UTF-8"?>
<svg width="60px" height="62px" viewBox="0 0 60 62" version="1.1" xmlns="http://www.w3.org/2000/svg" xmlns:xlink="http://www.w3.org/1999/xlink">
    <!-- Generator: sketchtool 42 (36781) - http://www.bohemiancoding.com/sketch -->
    <title>失败</title>
    <desc>Created with sketchtool.</desc>
    <defs></defs>
    <g id="Page-1" stroke="none" stroke-width="1" fill="none" fill-rule="evenodd">
        <g id="失败" fill="#FFFFFF">
            <path d="M26.0026305,7.99914214 C25.9881206,7.44733117 26.4320155,7 26.9791567,7 L33.019845,7 C33.5736755,7 34.0106815,7.45492426 33.9963712,7.99914214 L33.1548845,40.0008579 C33.1403746,40.5526688 32.6785361,41 32.1231203,41 L27.8758814,41 C27.3205637,41 26.8584275,40.5450757 26.8441173,40.0008579 L26.0026305,7.99914214 Z M30,53 C27.790861,53 26,51.209139 26,49 C26,46.790861 27.790861,45 30,45 C32.209139,45 34,46.790861 34,49 C34,51.209139 32.209139,53 30,53 Z" id="Combined-Shape"></path>
        </g>
    </g>
</svg>