<?xml version="1.0" encoding="UTF-8"?>
<svg width="20px" height="20px" viewBox="0 0 20 20" version="1.1" xmlns="http://www.w3.org/2000/svg" xmlns:xlink="http://www.w3.org/1999/xlink">
    <!-- Generator: sketchtool 42 (36781) - http://www.bohemiancoding.com/sketch -->
    <title>客服</title>
    <desc>Created with sketchtool.</desc>
    <defs></defs>
    <g id="Page-1" stroke="none" stroke-width="1" fill="none" fill-rule="evenodd">
        <g id="客服" fill="#333333">
            <g id="messgae">
                <path d="M6.26895879,17.4692907 L6.26895879,17.4692907 L3.32970777,18.9076095 C2.83871651,19.1478754 2.48926006,18.9038677 2.56011821,18.3572479 L2.99137053,15.0304454 C1.74575501,13.5513007 1,11.6697544 1,9.62135561 C1,4.85991239 5.02943725,1 10,1 C14.9705627,1 19,4.85991239 19,9.62135561 C19,14.3827988 14.9705627,18.2427112 10,18.2427112 C8.66908307,18.2427112 7.40564044,17.9659736 6.26895879,17.4692907 Z M4.04170055,14.7067302 L3.66257528,17.6314098 L6.25987667,16.3604237 C7.37519335,16.923499 8.64770357,17.2427112 10,17.2427112 C14.4276649,17.2427112 18,13.8206699 18,9.62135561 C18,5.4220413 14.4276649,2 10,2 C5.57233515,2 2,5.4220413 2,9.62135561 C2,11.5728062 2.7714549,13.3564027 4.04170055,14.7067302 L4.04170055,14.7067302 Z" id="Combined-Shape" fill-rule="nonzero"></path>
                <circle id="Oval-35" cx="5.47727273" cy="9.06982872" r="1"></circle>
                <circle id="Oval-35-Copy" cx="10" cy="9" r="1"></circle>
                <circle id="Oval-35-Copy-2" cx="14.2045455" cy="9.06982872" r="1"></circle>
            </g>
        </g>
    </g>
</svg>