<?xml version="1.0" encoding="UTF-8"?>
<svg width="40px" height="40px" viewBox="0 0 40 40" version="1.1" xmlns="http://www.w3.org/2000/svg" xmlns:xlink="http://www.w3.org/1999/xlink">
    <!-- Generator: sketchtool 42 (36781) - http://www.bohemiancoding.com/sketch -->
    <title>已完成</title>
    <desc>Created with sketchtool.</desc>
    <defs>
        <path d="M16,2 L17.0093689,2 C18.6610488,2 20,3.34559019 20,5.00878799 L20,19.991212 C20,21.6529197 18.656688,23 17.0057979,23 L2.99420208,23 C1.34054993,23 0,21.6544098 0,19.991212 L0,5.00878799 C0,3.34708027 1.34639675,2 2.99917602,2 L4.11192107,2" id="path-1"></path>
        <mask id="mask-2" maskContentUnits="userSpaceOnUse" maskUnits="objectBoundingBox" x="0" y="0" width="20" height="21" fill="white">
            <use xlink:href="#path-1"></use>
        </mask>
        <rect id="path-3" x="5" y="0" width="10" height="5" rx="2.5"></rect>
        <mask id="mask-4" maskContentUnits="userSpaceOnUse" maskUnits="objectBoundingBox" x="0" y="0" width="10" height="5" fill="white">
            <use xlink:href="#path-3"></use>
        </mask>
    </defs>
    <g id="Page-1" stroke="none" stroke-width="1" fill="none" fill-rule="evenodd">
        <g id="已完成">
            <rect id="Rectangle-1330" fill="#06BE04" x="0" y="0" width="40" height="40" rx="4"></rect>
            <g id="Group-13" transform="translate(10.000000, 9.000000)" stroke="#FFFFFF">
                <use id="Rectangle" mask="url(#mask-2)" stroke-width="3" xlink:href="#path-1"></use>
                <polyline id="Stroke-5" stroke-width="1.5" stroke-linecap="round" stroke-linejoin="round" points="5.38461538 12.2666667 8.46153847 15.3333333 14.6153846 7.66666667"></polyline>
                <use id="Rectangle-2" mask="url(#mask-4)" stroke-width="3" xlink:href="#path-3"></use>
            </g>
        </g>
    </g>
</svg>