<?xml version="1.0" encoding="UTF-8"?>
<svg width="16px" height="16px" viewBox="0 0 16 16" version="1.1" xmlns="http://www.w3.org/2000/svg" xmlns:xlink="http://www.w3.org/1999/xlink">
    <!-- Generator: sketchtool 42 (36781) - http://www.bohemiancoding.com/sketch -->
    <title>店铺</title>
    <desc>Created with sketchtool.</desc>
    <defs></defs>
    <g id="Page-1" stroke="none" stroke-width="1" fill="none" fill-rule="evenodd">
        <g id="店铺">
            <rect id="Rectangle-12" x="0" y="0" width="16" height="16"></rect>
            <g id="Page-1" transform="translate(1.000000, 1.000000)" fill="#333333">
                <path d="M6,13 L6,10.5097752 C6,9.12366461 7.10966206,8 8.5,8 C9.88071187,8 11,9.12855411 11,10.5097752 L11,13 L11.0046024,13 C11.5543453,13 12,12.4370097 12,11.7105194 L12,6.95001928 C11.8384509,6.98279514 11.6712396,7 11.5,7 C10.601,7 9.819,6.521 9.379,5.809 C8.831,6.528 7.974,7 7,7 C6.026,7 5.169,6.528 4.621,5.809 C4.181,6.521 3.399,7 2.5,7 C2.32876041,7 2.16154913,6.98279514 2,6.95001928 L2,11.7105194 C2,12.4226799 2.4556644,13 2.99539757,13 L6,13 Z M7,13 L10,13 L10,10.5097752 C10,9.67797895 9.32556924,9 8.5,9 C7.66674646,9 7,9.67113848 7,10.5097752 L7,13 Z M13,6.50036103 L13,12.0018986 C13,13.1132936 12.1007504,14 10.9914698,14 L3.0085302,14 C1.90195036,14 1,13.1054196 1,12.0018986 L1,6.50036103 C0.392728847,6.04431764 0,5.31813512 0,4.5 L0,1.99997165 C0,0.889055192 0.898053512,0 2.00585866,0 L11.9941413,0 C13.1029399,0 14,0.895417808 14,1.99997165 L14,4.5 C14,5.31813512 13.6072712,6.04431764 13,6.50036103 Z M13,4.5 C13,5.327 12.327,6 11.5,6 C10.982,6 10.507,5.732 10.229,5.283 C10.056,5.003 9.756,4.826 9.427,4.81 C9.411,4.81 9.395,4.809 9.379,4.809 C9.068,4.809 8.773,4.954 8.583,5.203 C8.198,5.71 7.62,6 7,6 C6.38,6 5.802,5.71 5.417,5.203 C5.227,4.954 4.932,4.809 4.621,4.809 C4.605,4.809 4.589,4.81 4.573,4.81 C4.244,4.826 3.944,5.003 3.771,5.283 C3.493,5.732 3.018,6 2.5,6 C1.673,6 1,5.327 1,4.5 L1,1.99359751 C1,1.44484876 1.45576096,1 2.00247329,1 L11.9975267,1 C12.5511774,1 13,1.45756388 13,1.99359751 L13,4.5 L13,4.5 Z" id="Combined-Shape"></path>
            </g>
        </g>
    </g>
</svg>