<?xml version="1.0" encoding="UTF-8"?>
<svg width="14px" height="12px" viewBox="0 0 14 12" version="1.1" xmlns="http://www.w3.org/2000/svg" xmlns:xlink="http://www.w3.org/1999/xlink">
    <!-- Generator: sketchtool 42 (36781) - http://www.bohemiancoding.com/sketch -->
    <title>拍照</title>
    <desc>Created with sketchtool.</desc>
    <defs></defs>
    <g id="Page-1" stroke="none" stroke-width="1" fill="none" fill-rule="evenodd">
        <path d="M4,2 L4.55613518,0.887729645 C4.80127495,0.3974501 5.44335318,0 6.0093689,0 L7.9906311,0 C8.54809015,0 9.19907951,0.398159027 9.44386482,0.887729645 L10,2 L12.9931545,2 C13.5492199,2 14,2.4556644 14,2.99539757 L14,11.0046024 C14,11.5543453 13.5500512,12 12.9931545,12 L1.00684547,12 C0.450780073,12 0,11.5443356 0,11.0046024 L0,2.99539757 C0,2.44565467 0.449948758,2 1.00684547,2 L4,2 L4,2 Z M7,10 C8.65685425,10 10,8.65685425 10,7 C10,5.34314575 8.65685425,4 7,4 C5.34314575,4 4,5.34314575 4,7 C4,8.65685425 5.34314575,10 7,10 Z M7,8 C6.44771525,8 6,7.55228475 6,7 C6,6.44771525 6.44771525,6 7,6 C7.55228475,6 8,6.44771525 8,7 C8,7.55228475 7.55228475,8 7,8 Z" id="拍照" fill="#333333"></path>
    </g>
</svg>