<?xml version="1.0" encoding="UTF-8"?>
<svg width="16px" height="16px" viewBox="0 0 16 16" version="1.1" xmlns="http://www.w3.org/2000/svg" xmlns:xlink="http://www.w3.org/1999/xlink">
    <!-- Generator: sketchtool 42 (36781) - http://www.bohemiancoding.com/sketch -->
    <title>搜索</title>
    <desc>Created with sketchtool.</desc>
    <defs></defs>
    <g id="Page-1" stroke="none" stroke-width="1" fill="none" fill-rule="evenodd">
        <path d="M2.66661111,6.66666667 C2.66661111,4.46133333 4.46124039,2.66666667 6.66652778,2.66666667 C8.87181517,2.66666667 10.6664444,4.46133333 10.6664444,6.66666667 C10.6664444,8.872 8.87181517,10.6666667 6.66652778,10.6666667 C4.46124039,10.6666667 2.66661111,8.872 2.66661111,6.66666667 M15.6090081,13.724 L12.2237453,10.3386667 C12.9223975,9.28533333 13.3330556,8.02533333 13.3330556,6.66666667 C13.3330556,2.98533333 10.3477844,0 6.66652778,0 C2.98527114,0 0,2.98533333 0,6.66666667 C0,10.348 2.98527114,13.3333333 6.66652778,13.3333333 C8.02516614,13.3333333 9.28513989,12.9226667 10.3384513,12.224 L13.7237141,15.6093333 C13.9837087,15.8693333 14.3250349,16 14.6663611,16 C15.0076873,16 15.3490136,15.8693333 15.6090081,15.6093333 C16.1303306,15.088 16.1303306,14.2453333 15.6090081,13.724" id="搜索" fill="#333333"></path>
    </g>
</svg>