<?xml version="1.0" encoding="UTF-8"?>
<svg width="22px" height="22px" viewBox="0 0 22 22" version="1.1" xmlns="http://www.w3.org/2000/svg" xmlns:xlink="http://www.w3.org/1999/xlink">
    <!-- Generator: sketchtool 42 (36781) - http://www.bohemiancoding.com/sketch -->
    <title>新增地址</title>
    <desc>Created with sketchtool.</desc>
    <defs></defs>
    <g id="Page-1" stroke="none" stroke-width="1" fill="none" fill-rule="evenodd">
        <g id="新增地址" fill="#333333">
            <path d="M11,20 C6.02943725,20 2,15.9705627 2,11 C2,6.02943725 6.02943725,2 11,2 C15.9705627,2 20,6.02943725 20,11 C20,15.9705627 15.9705627,20 11,20 Z M10.25,10.25 L6.5,10.25 C6.08578644,10.25 5.75,10.5857864 5.75,11 C5.75,11.4142136 6.08578644,11.75 6.5,11.75 L10.25,11.75 L10.25,15.5 C10.25,15.9142136 10.5857864,16.25 11,16.25 C11.4142136,16.25 11.75,15.9142136 11.75,15.5 L11.75,11.75 L15.5,11.75 C15.9142136,11.75 16.25,11.4142136 16.25,11 C16.25,10.5857864 15.9142136,10.25 15.5,10.25 L11.75,10.25 L11.75,6.5 C11.75,6.08578644 11.4142136,5.75 11,5.75 C10.5857864,5.75 10.25,6.08578644 10.25,6.5 L10.25,10.25 L10.25,10.25 Z" id="Combined-Shape"></path>
        </g>
    </g>
</svg>