<?xml version="1.0" encoding="UTF-8"?>
<svg width="40px" height="40px" viewBox="0 0 40 40" version="1.1" xmlns="http://www.w3.org/2000/svg" xmlns:xlink="http://www.w3.org/1999/xlink">
    <!-- Generator: sketchtool 42 (36781) - http://www.bohemiancoding.com/sketch -->
    <title>添加</title>
    <desc>Created with sketchtool.</desc>
    <defs></defs>
    <g id="Page-1" stroke="none" stroke-width="1" fill="none" fill-rule="evenodd">
        <path d="M0,4.00002553 C0,1.79087243 1.79642476,0 4.00002553,0 L35.9999745,0 C38.2091276,0 40,1.79642476 40,4.00002553 L40,35.9999745 C40,38.2091276 38.2035752,40 35.9999745,40 L4.00002553,40 C1.79087243,40 0,38.2035752 0,35.9999745 L0,4.00002553 Z M18.5,18.5 L11,18.5 C10.1715729,18.5 9.5,19.1715729 9.5,20 C9.5,20.8284271 10.1715729,21.5 11,21.5 L18.5,21.5 L18.5,29 C18.5,29.8284271 19.1715729,30.5 20,30.5 C20.8284271,30.5 21.5,29.8284271 21.5,29 L21.5,21.5 L29,21.5 C29.8284271,21.5 30.5,20.8284271 30.5,20 C30.5,19.1715729 29.8284271,18.5 29,18.5 L21.5,18.5 L21.5,11 C21.5,10.1715729 20.8284271,9.5 20,9.5 C19.1715729,9.5 18.5,10.1715729 18.5,11 L18.5,18.5 Z" id="添加" fill="#3183FB"></path>
    </g>
</svg>