<?xml version="1.0" encoding="UTF-8"?>
<svg width="14px" height="12px" viewBox="0 0 14 12" version="1.1" xmlns="http://www.w3.org/2000/svg" xmlns:xlink="http://www.w3.org/1999/xlink">
    <!-- Generator: sketchtool 42 (36781) - http://www.bohemiancoding.com/sketch -->
    <title>照片</title>
    <desc>Created with sketchtool.</desc>
    <defs></defs>
    <g id="Page-1" stroke="none" stroke-width="1" fill="none" fill-rule="evenodd">
        <path d="M0,1.00247329 C0,0.448822582 0.449948758,0 1.00684547,0 L12.9931545,0 C13.5492199,0 14,0.455760956 14,1.00247329 L14,10.9975267 C14,11.5511774 13.5500512,12 12.9931545,12 L1.00684547,12 C0.450780073,12 0,11.544239 0,10.9975267 L0,1.00247329 Z M8.80531001,5.38747956 L6,10 L12.6496237,10 L9.84431372,5.38747956 C9.55333965,4.90905691 9.09222297,4.91573425 8.80531001,5.38747956 Z M5.306642,2.36949224 L1,10.0006796 L5.22198333,10.0006796 C5.22198333,10.0006796 8.00056932,5.38571729 7.97765424,5.34511274 C7.40396661,4.32856254 6.29148273,2.35728818 6.29148273,2.35728818 C6.01854078,1.8736466 5.58050014,1.8842272 5.306642,2.36949224 Z" id="照片" fill="#333333"></path>
    </g>
</svg>