<?xml version="1.0" encoding="UTF-8"?>
<svg width="16px" height="16px" viewBox="0 0 16 16" version="1.1" xmlns="http://www.w3.org/2000/svg" xmlns:xlink="http://www.w3.org/1999/xlink">
    <!-- Generator: sketchtool 42 (36781) - http://www.bohemiancoding.com/sketch -->
    <title>物流</title>
    <desc>Created with sketchtool.</desc>
    <defs>
        <path d="M7.02516744,0 C6.61644641,0 6.27097983,0.3008 6.22070065,0.7008 L5.49814026,6.4 L0.632413745,6.4 L0.0160883855,9.4432 C-0.0844699626,9.9384 0.299111478,10.4 0.810823717,10.4 L2.29568126,10.4 C2.48382268,11.3128 3.30126474,12 4.28170863,12 C5.26296348,12 6.08040554,11.3128 6.26854696,10.4 L10.3638668,10.4 C10.5520082,11.3128 11.3702612,12 12.3507051,12 C13.331149,12 14.149402,11.3128 14.3375434,10.4 L15.1890456,10.4 C15.6366924,10.4 16,10.0416 16,9.6 L16,0.8 C16,0.3584 15.6366924,0 15.1890456,0 L7.02516744,0 Z" id="path-1"></path>
        <mask id="mask-2" maskContentUnits="userSpaceOnUse" maskUnits="objectBoundingBox" x="0" y="0" width="16" height="12" fill="white">
            <use xlink:href="#path-1"></use>
        </mask>
    </defs>
    <g id="Page-1" stroke="none" stroke-width="1" fill="none" fill-rule="evenodd">
        <g id="物流">
            <rect id="Rectangle-44" x="0" y="0" width="16" height="16"></rect>
            <g id="Group-10" transform="translate(0.000000, 2.000000)" stroke="#252525">
                <use id="Stroke-1" mask="url(#mask-2)" stroke-width="2" stroke-linecap="round" stroke-linejoin="round" xlink:href="#path-1"></use>
                <path d="M1.25633548,7.00048374 L2.30879428,2.93162015 C2.58473561,1.8648158 3.69735439,1 4.80600719,1 L7,1" id="Stroke-3"></path>
            </g>
        </g>
    </g>
</svg>