<?xml version="1.0" encoding="UTF-8"?>
<svg width="16px" height="16px" viewBox="0 0 16 16" version="1.1" xmlns="http://www.w3.org/2000/svg" xmlns:xlink="http://www.w3.org/1999/xlink">
    <!-- Generator: sketchtool 42 (36781) - http://www.bohemiancoding.com/sketch -->
    <title>物流</title>
    <desc>Created with sketchtool.</desc>
    <defs></defs>
    <g id="Page-1" stroke="none" stroke-width="1" fill="none" fill-rule="evenodd">
        <g id="物流" fill-rule="nonzero" fill="#252525">
            <g id="Group-10" transform="translate(0.000000, 2.000000)">
                <path d="M6.49019894,6.52577595 C6.42685129,7.02543096 6.00179496,7.4 5.49814026,7.4 L1.64059542,7.4 C1.55686515,7.4 1.42923606,7.50346577 1.41411379,7.57813429 L1.04513955,9.4 L2.29568126,9.4 C2.77015575,9.4 3.17931064,9.7334228 3.27509335,10.1981288 C3.37001376,10.6586513 3.78841209,11 4.28170863,11 C4.77575357,11 5.19420265,10.6587086 5.28913487,10.1981288 C5.38491759,9.7334228 5.79407247,9.4 6.26854696,9.4 L10.3638668,9.4 C10.8383413,9.4 11.2474962,9.7334228 11.3432789,10.1981288 C11.438141,10.6583684 11.8571283,11 12.3507051,11 C12.844282,11 13.2632692,10.6583684 13.3581314,10.1981288 C13.4539141,9.7334228 13.8630689,9.4 14.3375434,9.4 L15,9.4 L15,1 L7.19077214,1 L6.49019894,6.52577595 Z M7.02516744,0 L15.1890456,0 C15.6366924,0 16,0.3584 16,0.8 L16,9.6 C16,10.0416 15.6366924,10.4 15.1890456,10.4 L14.3375434,10.4 C14.149402,11.3128 13.331149,12 12.3507051,12 C11.3702612,12 10.5520082,11.3128 10.3638668,10.4 L6.26854696,10.4 C6.08040554,11.3128 5.26296348,12 4.28170863,12 C3.30126474,12 2.48382268,11.3128 2.29568126,10.4 L0.810823717,10.4 C0.299111478,10.4 -0.0844699626,9.9384 0.0160883855,9.4432 L0.434011993,7.37963876 C0.544109348,6.83601636 1.08379206,6.4 1.64059542,6.4 L5.49814026,6.4 L6.22070065,0.7008 C6.27097983,0.3008 6.61644641,0 7.02516744,0 Z" id="Stroke-1"></path>
                <path d="M1.74040413,7.12569371 L2.79286293,3.05683013 C3.01221175,2.20881552 3.92719954,1.5 4.80600719,1.5 L7,1.5 L7,0.5 L4.80600719,0.5 C3.47125412,0.5 2.15819789,1.51718805 1.82472562,2.80641018 L0.772266822,6.87527376 L1.74040413,7.12569371 Z" id="Stroke-3"></path>
            </g>
        </g>
    </g>
</svg>