<?xml version="1.0" encoding="UTF-8"?>
<svg width="24px" height="24px" viewBox="0 0 24 24" version="1.1" xmlns="http://www.w3.org/2000/svg" xmlns:xlink="http://www.w3.org/1999/xlink">
    <!-- Generator: sketchtool 42 (36781) - http://www.bohemiancoding.com/sketch -->
    <title>编辑地址</title>
    <desc>Created with sketchtool.</desc>
    <defs></defs>
    <g id="Page-1" stroke="none" stroke-width="1" fill="none" fill-rule="evenodd">
        <g id="编辑地址">
            <rect id="Rectangle-204" x="0" y="0" width="24" height="24"></rect>
            <path d="M22,19.9984875 C22,21.1009125 21.1086907,22 20.0092049,22 L3.99079514,22 C2.89821238,22 2,21.1067681 2,20.0049107 L2,5.99508929 C2,4.8926228 2.89661119,4 4.00263715,4 L14.7272727,4 L14.7272727,5 L4.00263715,5 C3.44779419,5 3,5.44601239 3,5.99508929 L3,20.0049107 C3,20.5520466 3.44805984,21 3.99079514,21 L20.0092049,21 C20.5539463,21 21,20.5510838 21,19.9984875 L21,7.27272727 L22,7.27272727 L22,19.9984875 Z M22,19.9984875 C22,21.1009125 21.1086907,22 20.0092049,22 L3.99079514,22 C2.89821238,22 2,21.1067681 2,20.0049107 L2,5.99508929 C2,4.8926228 2.89661119,4 4.00263715,4 L14.7272727,4 L14.7272727,5 L4.00263715,5 C3.44779419,5 3,5.44601239 3,5.99508929 L3,20.0049107 C3,20.5520466 3.44805984,21 3.99079514,21 L20.0092049,21 C20.5539463,21 21,20.5510838 21,19.9984875 L21,7.27272727 L22,7.27272727 L22,19.9984875 Z" id="Fill-1" fill="#333333" fill-rule="nonzero"></path>
            <path d="M12.0446787,12.8282307 C12.4269286,12.6891686 13.0469965,12.2979069 13.3356756,12.0143332 L20.8716532,4.61163093 C21.2602194,4.2299366 21.2598229,3.60931638 20.869894,3.22413023 L20.7658971,3.12139828 C20.3641159,2.72450394 19.7151947,2.72212738 19.3143651,3.11586845 L11.7775726,10.5193754 C11.50515,10.7869803 11.1430583,11.3851307 11.0325936,11.7488226 L10.5382922,13.3762521 L12.0446787,12.8282307 Z M21.4686642,2.40997823 L21.572661,2.51271018 C22.3580116,3.28850855 22.3608523,4.55053264 21.5724236,5.32501777 L14.036446,12.72772 C13.6469256,13.1103517 12.9048566,13.5794182 12.3865565,13.7679751 L9.93846531,14.6585875 C9.41470127,14.8491322 9.12963379,14.5731959 9.28954518,14.0467065 L10.0757556,11.4582009 C10.23439,10.9359157 10.6838507,10.1919908 11.076802,9.80598878 L18.6135945,2.40248181 C19.4064542,1.62364352 20.6803666,1.63126875 21.4686642,2.40997823 Z" id="Fill-2" fill="#333333" fill-rule="nonzero"></path>
        </g>
    </g>
</svg>