<?xml version="1.0" encoding="UTF-8"?>
<svg width="20px" height="20px" viewBox="0 0 20 20" version="1.1" xmlns="http://www.w3.org/2000/svg" xmlns:xlink="http://www.w3.org/1999/xlink">
    <!-- Generator: sketchtool 42 (36781) - http://www.bohemiancoding.com/sketch -->
    <title>购物车</title>
    <desc>Created with sketchtool.</desc>
    <defs></defs>
    <g id="Page-1" stroke="none" stroke-width="1" fill="none" fill-rule="evenodd">
        <g id="购物车">
            <g id="messgae">
                <rect id="Rectangle-244" opacity="0.484608209" x="0" y="0" width="20" height="20"></rect>
                <path d="M4.60990195,4 L5.80990195,10 L17.0957921,10 L18.3815064,4 L4.60990195,4 Z M3.59009805,4 L1,4 C0.723857625,4 0.5,3.77614237 0.5,3.5 C0.5,3.22385763 0.723857625,3 1,3 L3.99073735,3 C3.99728522,2.99987111 4.00381525,2.99987177 4.01032446,3 L19,3 C19.3183221,3 19.5555989,3.29350843 19.4889012,3.60476454 L17.9889012,10.6047645 C17.9395008,10.8352999 17.7357689,11 17.5,11 L6.00990195,11 L6.40990195,13 L17,13 C17.2761424,13 17.5,13.2238576 17.5,13.5 C17.5,13.7761424 17.2761424,14 17,14 L6,14 C5.76165949,14 5.55645208,13.8317702 5.50970966,13.5980581 L3.59009805,4 Z" id="Combined-Shape" fill="#333333" fill-rule="nonzero"></path>
                <path d="M8,18 C8.55228475,18 9,17.5522847 9,17 C9,16.4477153 8.55228475,16 8,16 C7.44771525,16 7,16.4477153 7,17 C7,17.5522847 7.44771525,18 8,18 Z M8,19 C6.8954305,19 6,18.1045695 6,17 C6,15.8954305 6.8954305,15 8,15 C9.1045695,15 10,15.8954305 10,17 C10,18.1045695 9.1045695,19 8,19 Z" id="Oval-102" fill="#333333" fill-rule="nonzero"></path>
                <path d="M15,18 C15.5522847,18 16,17.5522847 16,17 C16,16.4477153 15.5522847,16 15,16 C14.4477153,16 14,16.4477153 14,17 C14,17.5522847 14.4477153,18 15,18 Z M15,19 C13.8954305,19 13,18.1045695 13,17 C13,15.8954305 13.8954305,15 15,15 C16.1045695,15 17,15.8954305 17,17 C17,18.1045695 16.1045695,19 15,19 Z" id="Oval-102-Copy" fill="#333333" fill-rule="nonzero"></path>
            </g>
        </g>
    </g>
</svg>