<?xml version="1.0" encoding="UTF-8"?>
<svg width="20px" height="20px" viewBox="0 0 20 20" version="1.1" xmlns="http://www.w3.org/2000/svg" xmlns:xlink="http://www.w3.org/1999/xlink">
    <!-- Generator: sketchtool 42 (36781) - http://www.bohemiancoding.com/sketch -->
    <title>送礼</title>
    <desc>Created with sketchtool.</desc>
    <defs></defs>
    <g id="Page-1" stroke="none" stroke-width="1" fill="none" fill-rule="evenodd">
        <g id="送礼">
            <g id="messgae">
                <rect id="Rectangle-244" opacity="0.484608209" x="0" y="0" width="20" height="20"></rect>
                <g id="Page-1" transform="translate(1.000000, 2.000000)" fill-rule="nonzero" fill="#333333">
                    <path d="M16.6153846,6 C16.8221497,6 17,5.82017362 17,5.6 L17,1.4 C17,1.17982638 16.8221497,1 16.6153846,1 L1.38461538,1 C1.17785027,1 1,1.17982638 1,1.4 L1,5.6 C1,5.82017362 1.17785027,6 1.38461538,6 L16.6153846,6 Z M16.6153846,7 L1.38461538,7 C0.623076923,7 0,6.37 0,5.6 L0,1.4 C0,0.63 0.623076923,0 1.38461538,0 L16.6153846,0 C17.3769231,0 18,0.63 18,1.4 L18,5.6 C18,6.37 17.3769231,7 16.6153846,7 Z" id="Stroke-1"></path>
                    <path d="M2,7 L2,14.3333333 C2,14.7256944 2.23939394,15 2.45454545,15 L15.5454545,15 C15.7606061,15 16,14.7256944 16,14.3333333 L16,7 L2,7 Z M15.5454545,16 L2.45454545,16 C1.65454545,16 1,15.25 1,14.3333333 L1,6 L17,6 L17,14.3333333 C17,15.25 16.3454545,16 15.5454545,16 Z" id="Stroke-5"></path>
                    <path d="M8.47953717,10.1175442 C8.79916521,9.92272335 9.20083479,9.92272335 9.52046283,10.1175442 L11,11.0193574 L11,1 L7,1 L7,11.0193574 L8.47953717,10.1175442 Z M6,12.8 L6,0 L12,0 L12,12.8 L9,10.9714286 L6,12.8 Z" id="Stroke-3"></path>
                </g>
            </g>
        </g>
    </g>
</svg>