<?xml version="1.0" encoding="UTF-8"?>
<svg width="30px" height="30px" viewBox="0 0 30 30" version="1.1" xmlns="http://www.w3.org/2000/svg" xmlns:xlink="http://www.w3.org/1999/xlink">
    <!-- Generator: sketchtool 42 (36781) - http://www.bohemiancoding.com/sketch -->
    <title>选择商品开团</title>
    <desc>Created with sketchtool.</desc>
    <defs></defs>
    <g id="Page-1" stroke="none" stroke-width="1" fill="none" fill-rule="evenodd">
        <g id="选择商品开团">
            <rect id="Rectangle-66" x="0" y="0" width="30" height="30"></rect>
            <path d="M11,12 L4,12 L4,23.9941413 C4,25.1029399 4.89147046,26 5.991155,26 L24.008845,26 C25.1103261,26 26,25.1019465 26,23.9941413 L26,12 L19,12 L19,18 L15,15 L11,18 L11,12 Z" id="Combined-Shape" fill="#FF9B9B"></path>
            <path d="M11,5 L3,5 L3,13 L11,13 L11,5 Z M19,5 L27,5 L27,13 L19,13 L19,5 Z" id="Combined-Shape" fill="#FF5454"></path>
            <polygon id="Rectangle-2-Copy-4" fill="#FF9B9B" fill-rule="nonzero" points="18 16 18 5 12 5 12 16 15 13.75"></polygon>
        </g>
    </g>
</svg>