<?xml version="1.0" encoding="UTF-8"?>
<svg width="30px" height="30px" viewBox="0 0 30 30" version="1.1" xmlns="http://www.w3.org/2000/svg" xmlns:xlink="http://www.w3.org/1999/xlink">
    <!-- Generator: sketchtool 42 (36781) - http://www.bohemiancoding.com/sketch -->
    <title>邀请好友参团</title>
    <desc>Created with sketchtool.</desc>
    <defs></defs>
    <g id="Page-1" stroke="none" stroke-width="1" fill="none" fill-rule="evenodd">
        <g id="邀请好友参团">
            <rect id="Rectangle-66" x="0" y="0" width="30" height="30"></rect>
            <path d="M25.8265412,11.4129228 C27.7740229,13.1526245 29,15.6831411 29,18.5 C29,21.0878956 27.9652256,23.4341067 26.286862,25.147448 L27,28 L24.0727298,26.8290919 C22.7161922,27.5754267 21.1576783,28 19.5,28 C17.3011915,28 15.2768568,27.252989 13.6669369,25.9989081 C20.4935534,25.9095561 26,20.3478278 26,13.5 C26,12.7888754 25.9406177,12.0916202 25.8265412,11.4129228 L25.8265412,11.4129228 Z" id="Combined-Shape" fill="#B3E3F5"></path>
            <path d="M7.34971402,23.2189437 L3.17992434,24.6228631 L3.88228773,19.8070962 C2.6922823,17.9961281 2,15.8289097 2,13.5 C2,7.14872538 7.14872538,2 13.5,2 C19.8512746,2 25,7.14872538 25,13.5 C25,19.8512746 19.8512746,25 13.5,25 C11.2379344,25 9.12841144,24.346887 7.34971402,23.2189437 Z M13.5,20 C17.0898509,20 20,17.0898509 20,13.5 C20,13.5 7,13.5 7,13.5 C7,17.0898509 9.91014913,20 13.5,20 Z" id="Combined-Shape" fill="#00B8E5" fill-rule="nonzero"></path>
        </g>
    </g>
</svg>