<svg width="116" height="32" viewBox="0 0 116 32" fill="none" xmlns="http://www.w3.org/2000/svg">
<rect width="116" height="32" rx="15.675" fill="#337EFF"/>
<path d="M53.1552 16.2378H54.6258V17.697H53.1438C53.1438 17.5944 53.1552 17.4918 53.1552 17.4006V16.2378ZM53.0868 18.4152H54.6258V20.9346H55.3668V18.4152H56.8944V19.9428C56.8944 20.1708 56.7804 20.2962 56.5524 20.2962C56.3016 20.2962 56.0394 20.2734 55.7544 20.2506L55.9482 20.9916H56.7918C57.3732 20.9916 57.6696 20.7294 57.6696 20.2164V13.3878H55.7544C56.0964 13.0458 56.4384 12.6126 56.7804 12.111V11.5296H54.033C54.147 11.3016 54.2724 11.0736 54.3864 10.8342L53.5998 10.6632C53.0184 11.8488 52.2774 12.8178 51.3768 13.5588L51.8898 14.163C52.0494 14.0262 52.2204 13.8666 52.3914 13.707V17.4462C52.3686 18.7002 52.0836 19.749 51.5136 20.5698L52.1064 21.1056C52.6308 20.376 52.95 19.4868 53.0868 18.4152ZM54.8652 13.3878H52.6992C53.0184 13.0344 53.3262 12.6468 53.6112 12.225H55.8342C55.515 12.6582 55.1958 13.0458 54.8652 13.3878ZM56.8944 17.697H55.3668V16.2378H56.8944V17.697ZM56.8944 15.5082H55.3668V14.1174H56.8944V15.5082ZM54.6258 14.1174V15.5082H53.1552V14.1174H54.6258ZM47.9454 11.3244V12.1224H49.2336C48.9714 13.7754 48.4356 15.246 47.6148 16.5342L48.0936 17.298C48.2988 16.9788 48.504 16.6482 48.6978 16.2948V20.7636H49.473V19.8972H51.468V14.7102H49.3932C49.6668 13.9122 49.8834 13.0458 50.0316 12.1224H51.753V11.3244H47.9454ZM49.473 19.1562V15.4626H50.7156V19.1562H49.473ZM60.9414 14.0718V14.847H63.9282V19.8174C63.8142 19.7946 63.7002 19.7604 63.5976 19.7262C62.7768 19.464 62.0928 18.8484 61.5456 17.868C61.7508 17.2752 61.9332 16.6254 62.07 15.9186L61.272 15.7818C60.8844 17.7426 60.1548 19.3044 59.0604 20.4672L59.5848 21.117C60.2346 20.4558 60.7818 19.635 61.2264 18.6546C61.6938 19.3956 62.3094 19.9428 63.0618 20.2962C64.065 20.718 65.7066 20.9346 68.0094 20.9346H69.2862L69.4344 20.1138C68.8188 20.1594 68.226 20.1822 67.6446 20.1822C66.5046 20.1708 65.547 20.1024 64.749 19.9884V17.6286H68.1462V16.8534H64.749V14.847H67.6446V14.0718H60.9414ZM68.9442 11.8488H64.806C64.6464 11.3814 64.464 10.9596 64.2816 10.5834L63.4038 10.7202C63.609 11.0622 63.8028 11.4384 63.9738 11.8488H59.619V14.334H60.417V12.6012H68.1462V14.277H68.9442V11.8488Z" fill="white"/>
</svg>
