<svg width="116" height="32" viewBox="0 0 116 32" fill="none" xmlns="http://www.w3.org/2000/svg">
<rect x="0.5" y="0.5" width="115" height="31" rx="15.45" fill="white"/>
<path d="M52.26 16.1722H53.7564V17.657H52.2484C52.2484 17.5526 52.26 17.4482 52.26 17.3554V16.1722ZM52.1904 18.3878H53.7564V20.9514H54.5104V18.3878H56.0648V19.9422C56.0648 20.1742 55.9488 20.3018 55.7168 20.3018C55.4616 20.3018 55.1948 20.2786 54.9048 20.2554L55.102 21.0094H55.9604C56.552 21.0094 56.8536 20.7426 56.8536 20.2206V13.2722H54.9048C55.2528 12.9242 55.6008 12.4834 55.9488 11.973V11.3814H53.1532C53.2692 11.1494 53.3968 10.9174 53.5128 10.6738L52.7124 10.4998C52.1208 11.7062 51.3668 12.6922 50.4504 13.4462L50.9724 14.061C51.1348 13.9218 51.3088 13.7594 51.4828 13.597V17.4018C51.4596 18.6778 51.1696 19.745 50.5896 20.5802L51.1928 21.1254C51.7264 20.383 52.0512 19.4782 52.1904 18.3878ZM54 13.2722H51.796C52.1208 12.9126 52.434 12.5182 52.724 12.089H54.986C54.6612 12.5298 54.3364 12.9242 54 13.2722ZM56.0648 17.657H54.5104V16.1722H56.0648V17.657ZM56.0648 15.4298H54.5104V14.0146H56.0648V15.4298ZM53.7564 14.0146V15.4298H52.26V14.0146H53.7564ZM46.9588 11.1726V11.9846H48.2696C48.0028 13.6666 47.4576 15.163 46.6224 16.4738L47.1096 17.251C47.3184 16.9262 47.5272 16.5898 47.7244 16.2302V20.7774H48.5132V19.8958H50.5432V14.6178H48.432C48.7104 13.8058 48.9308 12.9242 49.0816 11.9846H50.8332V11.1726H46.9588ZM48.5132 19.1418V15.3834H49.7776V19.1418H48.5132ZM60.1828 13.9682V14.757H63.222V19.8146C63.106 19.7914 62.99 19.7566 62.8856 19.7218C62.0504 19.455 61.3544 18.8286 60.7976 17.831C61.0064 17.2278 61.192 16.5666 61.3312 15.8474L60.5192 15.7082C60.1248 17.7034 59.3824 19.2926 58.2688 20.4758L58.8024 21.137C59.4636 20.4642 60.0204 19.629 60.4728 18.6314C60.9484 19.3854 61.5748 19.9422 62.3404 20.3018C63.3612 20.731 65.0316 20.9514 67.3748 20.9514H68.674L68.8248 20.1162C68.1984 20.1626 67.5952 20.1858 67.0036 20.1858C65.8436 20.1742 64.8692 20.1046 64.0572 19.9886V17.5874H67.514V16.7986H64.0572V14.757H67.0036V13.9682H60.1828ZM68.326 11.7062H64.1152C63.9528 11.2306 63.7672 10.8014 63.5816 10.4186L62.6884 10.5578C62.8972 10.9058 63.0944 11.2886 63.2684 11.7062H58.8372V14.235H59.6492V12.4718H67.514V14.177H68.326V11.7062Z" fill="#666666"/>
<rect x="0.5" y="0.5" width="115" height="31" rx="15.45" stroke="#E5E5E5"/>
</svg>
