<?xml version="1.0" encoding="utf-8"?>
<!-- Generated by IcoMoon.io -->
<!DOCTYPE svg PUBLIC "-//W3C//DTD SVG 1.1//EN" "http://www.w3.org/Graphics/SVG/1.1/DTD/svg11.dtd">
<svg version="1.1" xmlns="http://www.w3.org/2000/svg" xmlns:xlink="http://www.w3.org/1999/xlink" width="32" height="32" viewBox="0 0 32 32">
<path fill="#bcc9d0" d="M30.501 1c-0.829 0-1.502 0.672-1.502 1.499v4.176c-2.977-4.165-7.767-6.675-13-6.675-8.822 0-15.999 7.177-15.999 15.999s7.177 16.001 15.999 16.001c6.504 0 12.31-3.886 14.794-9.897 0.159-0.383 0.146-0.794 0-1.146-0.146-0.356-0.429-0.655-0.814-0.814-0.38-0.157-0.792-0.146-1.146 0.002-0.354 0.146-0.655 0.429-0.814 0.812-2.017 4.885-6.734 8.041-12.020 8.041-7.168 0-13-5.832-13-13s5.832-13 13-13c4.487 0 8.57 2.274 10.95 6h-4.45c-0.827 0-1.499 0.672-1.499 1.502 0 0.827 0.672 1.499 1.499 1.499h8.002c0.827 0 1.499-0.672 1.499-1.499v-8.002c0-0.827-0.672-1.499-1.499-1.499z"></path>
</svg>
