<svg width="16" height="16" viewBox="0 0 16 16" fill="none" xmlns="http://www.w3.org/2000/svg">
<path transform="rotate(-135, 8, 8)" fill-rule="evenodd" clip-rule="evenodd" d="M8 1.46725C4.39206 1.46725 1.46725 4.39206 1.46725 8C1.46725 11.6079 4.39206 14.5328 8 14.5328C8.40517 14.5328 8.73362 14.8612 8.73362 15.2664C8.73362 15.6715 8.40517 16 8 16C3.58172 16 0 12.4183 0 8C0 3.58172 3.58172 0 8 0C12.4183 0 16 3.58172 16 8C16 8.40517 15.6715 8.73362 15.2664 8.73362C14.8612 8.73362 14.5328 8.40517 14.5328 8C14.5328 4.39206 11.6079 1.46725 8 1.46725Z" fill="#999999"/>
</svg>
