<svg width="28" height="14" viewBox="0 0 28 14" fill="none" xmlns="http://www.w3.org/2000/svg">
<path d="M3.892 2.48H12.544V1.598H4.354C4.494 1.276 4.62 0.94 4.732 0.604L3.738 0.436C3.22 2.004 2.24 3.32 0.798 4.412L1.4 5.196C2.016 4.734 2.548 4.23 3.024 3.684V7.87H4.816C4.06 8.878 2.884 9.704 1.274 10.348L1.792 11.202C2.52 10.866 3.178 10.488 3.752 10.096C4.508 10.754 5.362 11.314 6.314 11.776C4.872 12.196 3.136 12.448 1.106 12.532L1.512 13.414C3.864 13.274 5.852 12.91 7.504 12.294C9.1 12.91 10.934 13.26 12.978 13.358L13.216 12.434C11.564 12.378 10.052 12.154 8.708 11.762C9.856 11.174 10.78 10.446 11.48 9.55V8.822H5.208C5.46 8.514 5.698 8.206 5.908 7.87H11.452V3.446H3.22C3.458 3.138 3.682 2.816 3.892 2.48ZM7.518 11.37C6.384 10.922 5.376 10.348 4.48 9.648H10.234C9.548 10.334 8.638 10.908 7.518 11.37ZM10.472 7.058H4.018V6.022H10.472V7.058ZM4.018 5.266V4.244H10.472V5.266H4.018ZM16.184 3.278H18.144V5.084H14.756V6.022H18.144V7.492H15.386V12.532H16.366V8.43H18.144V13.414H19.152V8.43H20.916V10.978C20.916 11.342 20.706 11.524 20.314 11.524L19.628 11.482L19.88 12.434H20.622C21.462 12.434 21.882 12.014 21.882 11.188V7.492H19.152V6.022H22.176V5.084H19.152V3.278H21.77V2.34H19.152V0.604H18.144V2.34H16.52C16.632 1.962 16.716 1.556 16.786 1.108L15.834 0.954C15.638 2.284 15.19 3.32 14.49 4.076L15.302 4.664C15.638 4.3 15.932 3.838 16.184 3.278ZM23.002 1.864V10.516H23.982V1.864H23.002ZM25.564 13.274C26.418 13.274 26.852 12.826 26.852 11.958V0.604H25.858V11.706C25.858 12.154 25.634 12.378 25.214 12.378C24.598 12.378 23.954 12.35 23.282 12.308L23.506 13.274H25.564Z" fill="#5A89E1"/>
</svg>
