<svg width="56" height="14" viewBox="0 0 56 14" fill="none" xmlns="http://www.w3.org/2000/svg">
<path d="M5.166 3.012V5.756H0.84V6.708H13.16V5.756H8.82V3.012H12.628V2.074H9.464C9.744 1.696 9.996 1.276 10.234 0.8L9.268 0.463999C9.002 1.024 8.694 1.556 8.358 2.074H5.418C5.194 1.514 4.942 1.01 4.69 0.562L3.64 0.729999C3.892 1.136 4.13 1.584 4.354 2.074H1.372V3.012H5.166ZM7.854 3.012V5.756H6.132V3.012H7.854ZM11.116 3.376C10.822 3.978 10.43 4.58 9.926 5.196L10.724 5.602C11.214 5.014 11.62 4.398 11.928 3.754L11.116 3.376ZM3.136 3.404L2.254 3.698C2.618 4.258 2.94 4.888 3.22 5.616L4.074 5.238C3.808 4.594 3.5 3.978 3.136 3.404ZM11.27 7.73H2.702V13.386H3.668V12.728H10.304V13.386H11.27V7.73ZM3.668 11.874V10.656H10.304V11.874H3.668ZM3.668 9.844V8.57H10.304V9.844H3.668ZM15.764 0.785999L15.078 1.444C16.1 2.228 16.898 2.97 17.486 3.67L18.2 2.97C17.542 2.242 16.73 1.514 15.764 0.785999ZM23.954 13.148H27.132L27.37 12.14C27.006 12.168 26.488 12.182 25.816 12.196C25.13 12.21 24.458 12.224 23.814 12.224C22.708 12.224 21.784 12.21 21.042 12.196C20.202 12.168 19.572 12.056 19.124 11.86C18.732 11.678 18.368 11.384 18.032 10.978C17.906 10.838 17.794 10.74 17.682 10.656V5.42H14.756V6.344H16.744V10.6C16.17 10.852 15.512 11.566 14.77 12.742L15.526 13.428C16.296 12.14 16.856 11.496 17.192 11.496C17.36 11.496 17.542 11.608 17.738 11.846C18.172 12.35 18.676 12.7 19.236 12.868C19.796 13.022 20.538 13.106 21.448 13.12C22.344 13.134 23.184 13.148 23.954 13.148ZM21.448 2.13L20.832 2.732C21.518 3.096 22.134 3.474 22.666 3.852H19.166V11.3H20.118V8.85H22.456V11.258H23.394V8.85H25.746V9.9C25.746 10.208 25.578 10.376 25.242 10.376L24.136 10.334L24.36 11.188H25.522C26.306 11.188 26.698 10.824 26.698 10.11V3.852H23.926L23.702 3.67C24.682 3.138 25.592 2.508 26.432 1.78V1.052H18.858V1.906H25.074C24.458 2.382 23.786 2.802 23.058 3.18C22.582 2.83 22.036 2.48 21.448 2.13ZM20.118 6.792H22.456V8.024H20.118V6.792ZM23.394 6.792H25.746V8.024H23.394V6.792ZM25.746 5.952H23.394V4.692H25.746V5.952ZM22.456 5.952H20.118V4.692H22.456V5.952ZM35.77 8.458V9.354H38.388V11.678H39.326V9.354H41.356V8.458H39.326V6.736H40.964V5.854H39.326V3.964H38.388V5.854H36.946C37.38 5.042 37.772 4.09 38.136 3.026H41.09V2.144H38.416C38.542 1.71 38.668 1.248 38.78 0.771999L37.884 0.562C37.744 1.108 37.604 1.64 37.464 2.144H35.798V3.026H37.198C36.806 4.174 36.372 5.126 35.896 5.896L36.092 6.736H38.388V8.458H35.77ZM33.81 0.855999L33.068 1.318C33.684 2.144 34.174 2.9 34.538 3.6L35.294 3.068C34.958 2.438 34.454 1.696 33.81 0.855999ZM39.354 12.238C38.822 12.238 38.29 12.224 37.758 12.21C37.212 12.182 36.736 12.084 36.344 11.93C35.91 11.72 35.546 11.44 35.266 11.076C35.224 11.02 35.168 10.978 35.112 10.922V5.266H33.054V6.162H34.188V10.88C33.796 11.118 33.306 11.692 32.718 12.616L33.32 13.372C33.936 12.266 34.37 11.72 34.608 11.72C34.734 11.72 34.888 11.818 35.07 12.028C35.406 12.42 35.812 12.714 36.302 12.882C36.792 13.036 37.366 13.12 38.01 13.134C38.43 13.148 38.864 13.162 39.284 13.162H41.174L41.44 12.21C40.782 12.224 40.082 12.238 39.354 12.238ZM30.058 0.604C29.75 2.298 29.232 3.852 28.532 5.252L29.33 5.756C29.736 4.972 30.1 4.09 30.408 3.124H32.816V2.172H30.702C30.814 1.724 30.926 1.276 31.024 0.8L30.058 0.604ZM29.75 4.958V5.868H30.464V7.618H28.91V8.556H30.464V11.79C30.464 11.986 30.352 12.14 30.142 12.238L30.52 13.078C31.388 12.77 32.144 12.364 32.816 11.888L32.648 11.02C32.228 11.356 31.822 11.622 31.43 11.818V8.556H32.97V7.618H31.43V5.868H32.578V4.958H29.75ZM49.406 2.928L48.58 3.32C48.874 3.824 49.154 4.384 49.434 5H47.292V5.966H55.104V5H52.836C53.158 4.44 53.452 3.81 53.718 3.11L52.766 2.774C52.486 3.558 52.164 4.3 51.772 5H50.4C50.092 4.244 49.77 3.558 49.406 2.928ZM51.254 0.478L50.204 0.645999C50.372 0.996 50.54 1.388 50.694 1.808H47.614V2.732H54.852V1.808H51.716C51.562 1.318 51.408 0.87 51.254 0.478ZM44.268 13.274C45.094 13.274 45.514 12.868 45.514 12.056V7.912C45.906 7.73 46.298 7.534 46.69 7.324V6.302C46.298 6.512 45.906 6.708 45.514 6.904V4.216H46.676V3.25H45.514V0.604H44.478V3.25H42.77V4.216H44.478V7.338C43.834 7.59 43.176 7.8 42.518 7.968L42.77 8.976C43.344 8.794 43.918 8.584 44.478 8.36V11.804C44.478 12.168 44.282 12.35 43.918 12.35C43.582 12.35 43.218 12.322 42.84 12.294L43.05 13.274H44.268ZM50.022 6.358C49.868 6.75 49.7 7.142 49.504 7.562H47.11V8.542H48.986C48.692 9.074 48.356 9.62 47.978 10.194C48.958 10.586 49.868 10.964 50.722 11.356C49.854 11.86 48.594 12.252 46.97 12.546L47.362 13.456C49.378 13.064 50.848 12.518 51.772 11.846C52.892 12.378 53.858 12.896 54.698 13.414L55.244 12.602C54.362 12.098 53.438 11.622 52.486 11.174C53.144 10.46 53.578 9.578 53.788 8.542H55.328V7.562H50.526C50.694 7.212 50.848 6.848 50.988 6.47L50.022 6.358ZM52.836 8.542C52.612 9.438 52.192 10.166 51.562 10.754C50.806 10.418 50.022 10.096 49.21 9.788C49.49 9.396 49.756 8.976 50.008 8.542H52.836Z" fill="#337EFF"/>
</svg>
