<svg width="56" height="14" viewBox="0 0 56 14" fill="none" xmlns="http://www.w3.org/2000/svg">
<path d="M10.416 0.519999L9.772 1.136C10.486 1.682 11.046 2.2 11.466 2.704H8.848C8.82 2.032 8.806 1.318 8.806 0.533999H7.77C7.77 1.29 7.784 2.004 7.812 2.704H2.03V7.366C1.988 9.648 1.526 11.426 0.63 12.714L1.4 13.4C2.436 11.888 2.996 9.872 3.052 7.366V6.946H5.474C5.446 8.486 5.404 9.494 5.32 9.97C5.236 10.362 5.04 10.572 4.732 10.586C4.354 10.586 3.892 10.572 3.346 10.544L3.654 11.454C4.102 11.482 4.508 11.51 4.844 11.51C5.544 11.482 5.978 11.174 6.16 10.572C6.342 9.886 6.454 8.36 6.482 5.994H3.052V3.67H7.854C7.966 5.42 8.162 6.89 8.47 8.066C8.624 8.668 8.806 9.228 9.002 9.746C8.036 10.964 6.846 11.888 5.446 12.518L6.006 13.358C7.322 12.77 8.47 11.916 9.45 10.768C9.66 11.202 9.898 11.594 10.15 11.93C10.822 12.77 11.452 13.19 12.04 13.19C12.67 13.19 13.146 12.252 13.482 10.39L12.572 9.886C12.362 11.328 12.124 12.056 11.872 12.07C11.592 12.07 11.214 11.734 10.752 11.062C10.528 10.74 10.318 10.348 10.122 9.9C11.018 8.64 11.746 7.072 12.306 5.224L11.396 4.832C10.962 6.33 10.402 7.646 9.702 8.766C9.604 8.458 9.506 8.136 9.422 7.786C9.17 6.778 8.988 5.406 8.89 3.67H13.202V2.704H11.494L12.138 2.06C11.662 1.542 11.088 1.024 10.416 0.519999ZM16.744 3.096V9.802C16.03 9.97 15.302 10.124 14.574 10.25L14.826 11.258C16.646 10.866 18.354 10.39 19.95 9.802V8.794C19.236 9.074 18.508 9.312 17.766 9.522V3.096H19.782V2.13H14.728V3.096H16.744ZM22.358 0.604V3.432H20.132V4.412H22.358C22.302 8.22 21.266 11.006 19.222 12.742L20.048 13.456C22.204 11.538 23.324 8.528 23.394 4.412H25.956C25.928 8.15 25.872 10.39 25.788 11.118C25.648 11.916 25.116 12.322 24.206 12.322C23.814 12.322 23.366 12.308 22.848 12.28L23.086 13.218C23.688 13.246 24.108 13.274 24.36 13.274C25.774 13.274 26.572 12.686 26.74 11.538C26.88 10.502 26.95 7.8 26.95 3.432H23.394V0.604H22.358ZM35.77 8.458V9.354H38.388V11.678H39.326V9.354H41.356V8.458H39.326V6.736H40.964V5.854H39.326V3.964H38.388V5.854H36.946C37.38 5.042 37.772 4.09 38.136 3.026H41.09V2.144H38.416C38.542 1.71 38.668 1.248 38.78 0.771999L37.884 0.562C37.744 1.108 37.604 1.64 37.464 2.144H35.798V3.026H37.198C36.806 4.174 36.372 5.126 35.896 5.896L36.092 6.736H38.388V8.458H35.77ZM33.81 0.855999L33.068 1.318C33.684 2.144 34.174 2.9 34.538 3.6L35.294 3.068C34.958 2.438 34.454 1.696 33.81 0.855999ZM39.354 12.238C38.822 12.238 38.29 12.224 37.758 12.21C37.212 12.182 36.736 12.084 36.344 11.93C35.91 11.72 35.546 11.44 35.266 11.076C35.224 11.02 35.168 10.978 35.112 10.922V5.266H33.054V6.162H34.188V10.88C33.796 11.118 33.306 11.692 32.718 12.616L33.32 13.372C33.936 12.266 34.37 11.72 34.608 11.72C34.734 11.72 34.888 11.818 35.07 12.028C35.406 12.42 35.812 12.714 36.302 12.882C36.792 13.036 37.366 13.12 38.01 13.134C38.43 13.148 38.864 13.162 39.284 13.162H41.174L41.44 12.21C40.782 12.224 40.082 12.238 39.354 12.238ZM30.058 0.604C29.75 2.298 29.232 3.852 28.532 5.252L29.33 5.756C29.736 4.972 30.1 4.09 30.408 3.124H32.816V2.172H30.702C30.814 1.724 30.926 1.276 31.024 0.8L30.058 0.604ZM29.75 4.958V5.868H30.464V7.618H28.91V8.556H30.464V11.79C30.464 11.986 30.352 12.14 30.142 12.238L30.52 13.078C31.388 12.77 32.144 12.364 32.816 11.888L32.648 11.02C32.228 11.356 31.822 11.622 31.43 11.818V8.556H32.97V7.618H31.43V5.868H32.578V4.958H29.75ZM49.406 2.928L48.58 3.32C48.874 3.824 49.154 4.384 49.434 5H47.292V5.966H55.104V5H52.836C53.158 4.44 53.452 3.81 53.718 3.11L52.766 2.774C52.486 3.558 52.164 4.3 51.772 5H50.4C50.092 4.244 49.77 3.558 49.406 2.928ZM51.254 0.478L50.204 0.645999C50.372 0.996 50.54 1.388 50.694 1.808H47.614V2.732H54.852V1.808H51.716C51.562 1.318 51.408 0.87 51.254 0.478ZM44.268 13.274C45.094 13.274 45.514 12.868 45.514 12.056V7.912C45.906 7.73 46.298 7.534 46.69 7.324V6.302C46.298 6.512 45.906 6.708 45.514 6.904V4.216H46.676V3.25H45.514V0.604H44.478V3.25H42.77V4.216H44.478V7.338C43.834 7.59 43.176 7.8 42.518 7.968L42.77 8.976C43.344 8.794 43.918 8.584 44.478 8.36V11.804C44.478 12.168 44.282 12.35 43.918 12.35C43.582 12.35 43.218 12.322 42.84 12.294L43.05 13.274H44.268ZM50.022 6.358C49.868 6.75 49.7 7.142 49.504 7.562H47.11V8.542H48.986C48.692 9.074 48.356 9.62 47.978 10.194C48.958 10.586 49.868 10.964 50.722 11.356C49.854 11.86 48.594 12.252 46.97 12.546L47.362 13.456C49.378 13.064 50.848 12.518 51.772 11.846C52.892 12.378 53.858 12.896 54.698 13.414L55.244 12.602C54.362 12.098 53.438 11.622 52.486 11.174C53.144 10.46 53.578 9.578 53.788 8.542H55.328V7.562H50.526C50.694 7.212 50.848 6.848 50.988 6.47L50.022 6.358ZM52.836 8.542C52.612 9.438 52.192 10.166 51.562 10.754C50.806 10.418 50.022 10.096 49.21 9.788C49.49 9.396 49.756 8.976 50.008 8.542H52.836Z" fill="#26BD71"/>
</svg>
