<svg width="56" height="14" viewBox="0 0 56 14" fill="none" xmlns="http://www.w3.org/2000/svg">
<path d="M1.022 1.15V1.892H2.716V2.396L2.016 2.284C1.778 3.18 1.33 3.894 0.672 4.426L1.218 5.098C1.722 4.678 2.128 4.16 2.436 3.544H6.23C6.216 4.468 6.174 5.07 6.104 5.322C6.02 5.574 5.824 5.7 5.516 5.728H5.166V4.09H2.184V6.008H5.012L5.124 6.386H5.698C5.922 6.372 6.118 6.33 6.3 6.274C6.412 6.442 6.538 6.652 6.65 6.89H0.966V7.632H13.048V6.89H7.602C7.462 6.554 7.336 6.26 7.196 5.994L6.65 6.078C6.72 6.022 6.79 5.938 6.846 5.84C7.042 5.476 7.154 4.482 7.154 2.858H2.716C2.758 2.746 2.8 2.634 2.828 2.522H3.556V1.892H5.082V2.522H5.922V1.892H7.602V1.15H5.922V0.519999H5.082V1.15H3.556V0.519999H2.716V1.15H1.022ZM4.396 5.448H2.94V4.636H4.396V5.448ZM8.596 3.334C8.82 3.81 9.142 4.258 9.59 4.678C9.016 5.07 8.302 5.35 7.434 5.546L7.812 6.358C8.778 6.134 9.604 5.756 10.29 5.252C10.934 5.7 11.76 6.092 12.74 6.414L13.202 5.602C12.334 5.336 11.578 5.014 10.948 4.636C11.508 4.006 11.9 3.208 12.11 2.228H12.894V1.388H9.562C9.646 1.136 9.716 0.884 9.786 0.604L8.862 0.436C8.568 1.752 8.008 2.802 7.182 3.586L7.742 4.286C8.05 4.006 8.344 3.684 8.596 3.334ZM9.226 2.228H11.228C11.06 2.956 10.724 3.6 10.234 4.132C9.674 3.656 9.296 3.11 9.1 2.494C9.128 2.41 9.17 2.326 9.226 2.228ZM2.674 8.29V8.906H11.452V8.29H2.674ZM2.674 9.55V10.166H11.452V9.55H2.674ZM11.9 10.852H2.254V13.512H3.234V13.092H10.92V13.512H11.9V10.852ZM3.234 12.406V11.524H10.92V12.406H3.234ZM25.606 8.234H16.478V13.386H17.5V12.644H24.584V13.386H25.606V8.234ZM17.5 11.692V9.2H24.584V11.692H17.5ZM17.318 3.502H20.664V5.77H14.672V6.764H27.328V5.77H21.686V3.502H26.264V2.536H21.686V0.548H20.664V2.536H17.92C18.2 2.018 18.424 1.472 18.606 0.884L17.598 0.771999C17.15 2.242 16.282 3.488 15.022 4.496L15.624 5.294C16.282 4.748 16.842 4.146 17.318 3.502ZM35.77 8.458V9.354H38.388V11.678H39.326V9.354H41.356V8.458H39.326V6.736H40.964V5.854H39.326V3.964H38.388V5.854H36.946C37.38 5.042 37.772 4.09 38.136 3.026H41.09V2.144H38.416C38.542 1.71 38.668 1.248 38.78 0.771999L37.884 0.562C37.744 1.108 37.604 1.64 37.464 2.144H35.798V3.026H37.198C36.806 4.174 36.372 5.126 35.896 5.896L36.092 6.736H38.388V8.458H35.77ZM33.81 0.855999L33.068 1.318C33.684 2.144 34.174 2.9 34.538 3.6L35.294 3.068C34.958 2.438 34.454 1.696 33.81 0.855999ZM39.354 12.238C38.822 12.238 38.29 12.224 37.758 12.21C37.212 12.182 36.736 12.084 36.344 11.93C35.91 11.72 35.546 11.44 35.266 11.076C35.224 11.02 35.168 10.978 35.112 10.922V5.266H33.054V6.162H34.188V10.88C33.796 11.118 33.306 11.692 32.718 12.616L33.32 13.372C33.936 12.266 34.37 11.72 34.608 11.72C34.734 11.72 34.888 11.818 35.07 12.028C35.406 12.42 35.812 12.714 36.302 12.882C36.792 13.036 37.366 13.12 38.01 13.134C38.43 13.148 38.864 13.162 39.284 13.162H41.174L41.44 12.21C40.782 12.224 40.082 12.238 39.354 12.238ZM30.058 0.604C29.75 2.298 29.232 3.852 28.532 5.252L29.33 5.756C29.736 4.972 30.1 4.09 30.408 3.124H32.816V2.172H30.702C30.814 1.724 30.926 1.276 31.024 0.8L30.058 0.604ZM29.75 4.958V5.868H30.464V7.618H28.91V8.556H30.464V11.79C30.464 11.986 30.352 12.14 30.142 12.238L30.52 13.078C31.388 12.77 32.144 12.364 32.816 11.888L32.648 11.02C32.228 11.356 31.822 11.622 31.43 11.818V8.556H32.97V7.618H31.43V5.868H32.578V4.958H29.75ZM49.406 2.928L48.58 3.32C48.874 3.824 49.154 4.384 49.434 5H47.292V5.966H55.104V5H52.836C53.158 4.44 53.452 3.81 53.718 3.11L52.766 2.774C52.486 3.558 52.164 4.3 51.772 5H50.4C50.092 4.244 49.77 3.558 49.406 2.928ZM51.254 0.478L50.204 0.645999C50.372 0.996 50.54 1.388 50.694 1.808H47.614V2.732H54.852V1.808H51.716C51.562 1.318 51.408 0.87 51.254 0.478ZM44.268 13.274C45.094 13.274 45.514 12.868 45.514 12.056V7.912C45.906 7.73 46.298 7.534 46.69 7.324V6.302C46.298 6.512 45.906 6.708 45.514 6.904V4.216H46.676V3.25H45.514V0.604H44.478V3.25H42.77V4.216H44.478V7.338C43.834 7.59 43.176 7.8 42.518 7.968L42.77 8.976C43.344 8.794 43.918 8.584 44.478 8.36V11.804C44.478 12.168 44.282 12.35 43.918 12.35C43.582 12.35 43.218 12.322 42.84 12.294L43.05 13.274H44.268ZM50.022 6.358C49.868 6.75 49.7 7.142 49.504 7.562H47.11V8.542H48.986C48.692 9.074 48.356 9.62 47.978 10.194C48.958 10.586 49.868 10.964 50.722 11.356C49.854 11.86 48.594 12.252 46.97 12.546L47.362 13.456C49.378 13.064 50.848 12.518 51.772 11.846C52.892 12.378 53.858 12.896 54.698 13.414L55.244 12.602C54.362 12.098 53.438 11.622 52.486 11.174C53.144 10.46 53.578 9.578 53.788 8.542H55.328V7.562H50.526C50.694 7.212 50.848 6.848 50.988 6.47L50.022 6.358ZM52.836 8.542C52.612 9.438 52.192 10.166 51.562 10.754C50.806 10.418 50.022 10.096 49.21 9.788C49.49 9.396 49.756 8.976 50.008 8.542H52.836Z" fill="#FFB21A"/>
</svg>
