<svg width="56" height="14" viewBox="0 0 56 14" fill="none" xmlns="http://www.w3.org/2000/svg">
<path d="M4.802 0.366C3.71 2.102 2.296 3.516 0.588 4.58L1.26 5.392C1.68 5.098 2.1 4.79 2.52 4.454V7.366C2.464 9.662 1.82 11.44 0.588 12.728L1.4 13.456C2.744 11.93 3.458 9.9 3.528 7.366V5.084H13.006V4.104H8.848C9.408 3.628 9.982 3.04 10.556 2.368V1.64H5.152C5.39 1.304 5.614 0.954 5.838 0.589999L4.802 0.366ZM7.532 4.104H2.94C3.486 3.614 4.004 3.082 4.494 2.508H9.24C8.68 3.11 8.106 3.642 7.532 4.104ZM10.052 7.576V8.878C10.052 9.326 9.87 9.55 9.506 9.55C9.002 9.55 8.442 9.522 7.826 9.466L8.064 10.418C8.652 10.446 9.254 10.46 9.87 10.46C10.668 10.432 11.074 9.998 11.074 9.186V6.68H5.292V11.93C5.292 12.77 5.74 13.19 6.664 13.19H11.088C11.886 13.19 12.432 13.064 12.712 12.84C13.02 12.56 13.23 11.79 13.356 10.558L12.39 10.25C12.306 11.062 12.194 11.608 12.026 11.888C11.872 12.126 11.466 12.252 10.822 12.252H7.07C6.566 12.252 6.314 12.028 6.314 11.594V7.576H10.052ZM15.19 1.164V13.414H16.17V2.088H18.34C17.99 3.264 17.5 4.594 16.87 6.05C17.808 7.24 18.284 8.318 18.284 9.284C18.284 9.564 18.2 9.76 18.046 9.872C17.878 9.984 17.542 10.054 17.066 10.082C16.926 10.082 16.744 10.054 16.534 10.026L16.856 11.034C17.794 11.02 18.452 10.852 18.844 10.544C19.124 10.278 19.264 9.858 19.264 9.284C19.194 8.276 18.732 7.142 17.864 5.896C18.424 4.524 18.914 3.194 19.334 1.934V1.164H15.19ZM20.986 4.706V5.546H25.354V4.734C25.844 5.238 26.404 5.7 27.034 6.148L27.58 5.308C25.69 3.964 24.36 2.41 23.604 0.618H22.694C21.784 2.55 20.482 4.132 18.802 5.35L19.306 6.148C19.894 5.728 20.454 5.252 20.986 4.706ZM25.242 4.622H21.07C21.84 3.782 22.526 2.788 23.142 1.612C23.66 2.704 24.36 3.712 25.242 4.622ZM18.97 11.944V12.91H27.272V11.944H24.892C25.55 10.404 26.11 8.654 26.572 6.666L25.592 6.4C25.116 8.584 24.542 10.432 23.884 11.944H18.97ZM20.594 6.904L19.726 7.198C20.244 8.458 20.678 9.788 21.014 11.16L21.896 10.936C21.504 9.424 21.07 8.08 20.594 6.904ZM22.82 6.358L21.952 6.638C22.386 7.87 22.75 9.144 23.03 10.488L23.898 10.264C23.59 8.794 23.226 7.492 22.82 6.358ZM35.77 8.458V9.354H38.388V11.678H39.326V9.354H41.356V8.458H39.326V6.736H40.964V5.854H39.326V3.964H38.388V5.854H36.946C37.38 5.042 37.772 4.09 38.136 3.026H41.09V2.144H38.416C38.542 1.71 38.668 1.248 38.78 0.771999L37.884 0.562C37.744 1.108 37.604 1.64 37.464 2.144H35.798V3.026H37.198C36.806 4.174 36.372 5.126 35.896 5.896L36.092 6.736H38.388V8.458H35.77ZM33.81 0.855999L33.068 1.318C33.684 2.144 34.174 2.9 34.538 3.6L35.294 3.068C34.958 2.438 34.454 1.696 33.81 0.855999ZM39.354 12.238C38.822 12.238 38.29 12.224 37.758 12.21C37.212 12.182 36.736 12.084 36.344 11.93C35.91 11.72 35.546 11.44 35.266 11.076C35.224 11.02 35.168 10.978 35.112 10.922V5.266H33.054V6.162H34.188V10.88C33.796 11.118 33.306 11.692 32.718 12.616L33.32 13.372C33.936 12.266 34.37 11.72 34.608 11.72C34.734 11.72 34.888 11.818 35.07 12.028C35.406 12.42 35.812 12.714 36.302 12.882C36.792 13.036 37.366 13.12 38.01 13.134C38.43 13.148 38.864 13.162 39.284 13.162H41.174L41.44 12.21C40.782 12.224 40.082 12.238 39.354 12.238ZM30.058 0.604C29.75 2.298 29.232 3.852 28.532 5.252L29.33 5.756C29.736 4.972 30.1 4.09 30.408 3.124H32.816V2.172H30.702C30.814 1.724 30.926 1.276 31.024 0.8L30.058 0.604ZM29.75 4.958V5.868H30.464V7.618H28.91V8.556H30.464V11.79C30.464 11.986 30.352 12.14 30.142 12.238L30.52 13.078C31.388 12.77 32.144 12.364 32.816 11.888L32.648 11.02C32.228 11.356 31.822 11.622 31.43 11.818V8.556H32.97V7.618H31.43V5.868H32.578V4.958H29.75ZM49.406 2.928L48.58 3.32C48.874 3.824 49.154 4.384 49.434 5H47.292V5.966H55.104V5H52.836C53.158 4.44 53.452 3.81 53.718 3.11L52.766 2.774C52.486 3.558 52.164 4.3 51.772 5H50.4C50.092 4.244 49.77 3.558 49.406 2.928ZM51.254 0.478L50.204 0.645999C50.372 0.996 50.54 1.388 50.694 1.808H47.614V2.732H54.852V1.808H51.716C51.562 1.318 51.408 0.87 51.254 0.478ZM44.268 13.274C45.094 13.274 45.514 12.868 45.514 12.056V7.912C45.906 7.73 46.298 7.534 46.69 7.324V6.302C46.298 6.512 45.906 6.708 45.514 6.904V4.216H46.676V3.25H45.514V0.604H44.478V3.25H42.77V4.216H44.478V7.338C43.834 7.59 43.176 7.8 42.518 7.968L42.77 8.976C43.344 8.794 43.918 8.584 44.478 8.36V11.804C44.478 12.168 44.282 12.35 43.918 12.35C43.582 12.35 43.218 12.322 42.84 12.294L43.05 13.274H44.268ZM50.022 6.358C49.868 6.75 49.7 7.142 49.504 7.562H47.11V8.542H48.986C48.692 9.074 48.356 9.62 47.978 10.194C48.958 10.586 49.868 10.964 50.722 11.356C49.854 11.86 48.594 12.252 46.97 12.546L47.362 13.456C49.378 13.064 50.848 12.518 51.772 11.846C52.892 12.378 53.858 12.896 54.698 13.414L55.244 12.602C54.362 12.098 53.438 11.622 52.486 11.174C53.144 10.46 53.578 9.578 53.788 8.542H55.328V7.562H50.526C50.694 7.212 50.848 6.848 50.988 6.47L50.022 6.358ZM52.836 8.542C52.612 9.438 52.192 10.166 51.562 10.754C50.806 10.418 50.022 10.096 49.21 9.788C49.49 9.396 49.756 8.976 50.008 8.542H52.836Z" fill="#F24957"/>
</svg>
