<svg width="56" height="14" viewBox="0 0 56 14" fill="none" xmlns="http://www.w3.org/2000/svg">
<path d="M2.268 6.624V7.52H11.718V6.624H2.268ZM1.106 8.668V9.578H6.692V12.112C6.692 12.406 6.538 12.56 6.23 12.56C5.838 12.56 5.432 12.532 5.012 12.49L5.208 13.4H6.552C7.322 13.4 7.714 13.05 7.714 12.35V9.578H12.894V8.668H1.106ZM9.954 10.278L9.45 11.034C10.444 11.622 11.424 12.42 12.376 13.428L12.95 12.56C12.04 11.664 11.046 10.894 9.954 10.278ZM3.808 10.25C3.066 11.118 2.156 11.888 1.064 12.546L1.694 13.344C2.814 12.644 3.752 11.818 4.508 10.866L3.808 10.25ZM1.12 1.794V2.718H3.388C2.758 3.642 1.918 4.44 0.868 5.112L1.428 5.938C2.254 5.294 2.968 4.482 3.57 3.53V6.078H4.564V3.656C4.956 4.006 5.432 4.482 6.006 5.098L6.552 4.3C5.88 3.796 5.222 3.348 4.564 2.956V2.718H6.678V1.794H4.564V0.533999H3.57V1.794H1.12ZM7.322 1.808V2.718H8.876C8.316 3.67 7.588 4.482 6.664 5.182L7.224 6.022C8.064 5.238 8.764 4.244 9.338 3.04V6.092H10.332V2.97C10.794 4.034 11.536 5 12.544 5.896L13.188 5.084C12.096 4.384 11.312 3.6 10.822 2.718H12.88V1.808H10.332V0.519999H9.338V1.808H7.322ZM16.982 5.448H20.538V7.898H16.982V5.448ZM16.926 8.822H20.538V12.924H21.574V8.822H25.382V11.258C25.382 11.846 25.116 12.14 24.612 12.14C24.136 12.14 23.618 12.112 23.058 12.084L23.324 13.078H24.934C25.914 13.078 26.404 12.588 26.404 11.608V1.122H15.974V7.842C15.946 9.76 15.484 11.342 14.588 12.588L15.358 13.274C16.254 12.098 16.772 10.614 16.926 8.822ZM25.382 7.898H21.574V5.448H25.382V7.898ZM25.382 4.51H21.574V2.102H25.382V4.51ZM20.538 2.102V4.51H16.982V2.102H20.538ZM35.77 8.458V9.354H38.388V11.678H39.326V9.354H41.356V8.458H39.326V6.736H40.964V5.854H39.326V3.964H38.388V5.854H36.946C37.38 5.042 37.772 4.09 38.136 3.026H41.09V2.144H38.416C38.542 1.71 38.668 1.248 38.78 0.771999L37.884 0.562C37.744 1.108 37.604 1.64 37.464 2.144H35.798V3.026H37.198C36.806 4.174 36.372 5.126 35.896 5.896L36.092 6.736H38.388V8.458H35.77ZM33.81 0.855999L33.068 1.318C33.684 2.144 34.174 2.9 34.538 3.6L35.294 3.068C34.958 2.438 34.454 1.696 33.81 0.855999ZM39.354 12.238C38.822 12.238 38.29 12.224 37.758 12.21C37.212 12.182 36.736 12.084 36.344 11.93C35.91 11.72 35.546 11.44 35.266 11.076C35.224 11.02 35.168 10.978 35.112 10.922V5.266H33.054V6.162H34.188V10.88C33.796 11.118 33.306 11.692 32.718 12.616L33.32 13.372C33.936 12.266 34.37 11.72 34.608 11.72C34.734 11.72 34.888 11.818 35.07 12.028C35.406 12.42 35.812 12.714 36.302 12.882C36.792 13.036 37.366 13.12 38.01 13.134C38.43 13.148 38.864 13.162 39.284 13.162H41.174L41.44 12.21C40.782 12.224 40.082 12.238 39.354 12.238ZM30.058 0.604C29.75 2.298 29.232 3.852 28.532 5.252L29.33 5.756C29.736 4.972 30.1 4.09 30.408 3.124H32.816V2.172H30.702C30.814 1.724 30.926 1.276 31.024 0.8L30.058 0.604ZM29.75 4.958V5.868H30.464V7.618H28.91V8.556H30.464V11.79C30.464 11.986 30.352 12.14 30.142 12.238L30.52 13.078C31.388 12.77 32.144 12.364 32.816 11.888L32.648 11.02C32.228 11.356 31.822 11.622 31.43 11.818V8.556H32.97V7.618H31.43V5.868H32.578V4.958H29.75ZM49.406 2.928L48.58 3.32C48.874 3.824 49.154 4.384 49.434 5H47.292V5.966H55.104V5H52.836C53.158 4.44 53.452 3.81 53.718 3.11L52.766 2.774C52.486 3.558 52.164 4.3 51.772 5H50.4C50.092 4.244 49.77 3.558 49.406 2.928ZM51.254 0.478L50.204 0.645999C50.372 0.996 50.54 1.388 50.694 1.808H47.614V2.732H54.852V1.808H51.716C51.562 1.318 51.408 0.87 51.254 0.478ZM44.268 13.274C45.094 13.274 45.514 12.868 45.514 12.056V7.912C45.906 7.73 46.298 7.534 46.69 7.324V6.302C46.298 6.512 45.906 6.708 45.514 6.904V4.216H46.676V3.25H45.514V0.604H44.478V3.25H42.77V4.216H44.478V7.338C43.834 7.59 43.176 7.8 42.518 7.968L42.77 8.976C43.344 8.794 43.918 8.584 44.478 8.36V11.804C44.478 12.168 44.282 12.35 43.918 12.35C43.582 12.35 43.218 12.322 42.84 12.294L43.05 13.274H44.268ZM50.022 6.358C49.868 6.75 49.7 7.142 49.504 7.562H47.11V8.542H48.986C48.692 9.074 48.356 9.62 47.978 10.194C48.958 10.586 49.868 10.964 50.722 11.356C49.854 11.86 48.594 12.252 46.97 12.546L47.362 13.456C49.378 13.064 50.848 12.518 51.772 11.846C52.892 12.378 53.858 12.896 54.698 13.414L55.244 12.602C54.362 12.098 53.438 11.622 52.486 11.174C53.144 10.46 53.578 9.578 53.788 8.542H55.328V7.562H50.526C50.694 7.212 50.848 6.848 50.988 6.47L50.022 6.358ZM52.836 8.542C52.612 9.438 52.192 10.166 51.562 10.754C50.806 10.418 50.022 10.096 49.21 9.788C49.49 9.396 49.756 8.976 50.008 8.542H52.836Z" fill="#666666"/>
</svg>
