<svg width="116" height="32" viewBox="0 0 116 32" fill="none" xmlns="http://www.w3.org/2000/svg">
<rect width="116" height="32" rx="15.95" fill="#337EFF"/>
<path d="M60.5418 16.422H62.0382V17.9068H60.5302C60.5302 17.8024 60.5418 17.698 60.5418 17.6052V16.422ZM60.4722 18.6376H62.0382V21.2012H62.7922V18.6376H64.3466V20.192C64.3466 20.424 64.2306 20.5516 63.9986 20.5516C63.7434 20.5516 63.4766 20.5284 63.1866 20.5052L63.3838 21.2592H64.2422C64.8338 21.2592 65.1354 20.9924 65.1354 20.4704V13.522H63.1866C63.5346 13.174 63.8826 12.7332 64.2306 12.2228V11.6312H61.435C61.551 11.3992 61.6786 11.1672 61.7946 10.9236L60.9942 10.7496C60.4026 11.956 59.6486 12.942 58.7322 13.696L59.2542 14.3108C59.4166 14.1716 59.5906 14.0092 59.7646 13.8468V17.6516C59.7414 18.9276 59.4514 19.9948 58.8714 20.83L59.4746 21.3752C60.0082 20.6328 60.333 19.728 60.4722 18.6376ZM62.2818 13.522H60.0778C60.4026 13.1624 60.7158 12.768 61.0058 12.3388H63.2678C62.943 12.7796 62.6182 13.174 62.2818 13.522ZM64.3466 17.9068H62.7922V16.422H64.3466V17.9068ZM64.3466 15.6796H62.7922V14.2644H64.3466V15.6796ZM62.0382 14.2644V15.6796H60.5418V14.2644H62.0382ZM55.2406 11.4224V12.2344H56.5514C56.2846 13.9164 55.7394 15.4128 54.9042 16.7236L55.3914 17.5008C55.6002 17.176 55.809 16.8396 56.0062 16.48V21.0272H56.795V20.1456H58.825V14.8676H56.7138C56.9922 14.0556 57.2126 13.174 57.3634 12.2344H59.115V11.4224H55.2406ZM56.795 19.3916V15.6332H58.0594V19.3916H56.795ZM68.4646 14.218V15.0068H71.5038V20.0644C71.3878 20.0412 71.2718 20.0064 71.1674 19.9716C70.3322 19.7048 69.6362 19.0784 69.0794 18.0808C69.2882 17.4776 69.4738 16.8164 69.613 16.0972L68.801 15.958C68.4066 17.9532 67.6642 19.5424 66.5506 20.7256L67.0842 21.3868C67.7454 20.714 68.3022 19.8788 68.7546 18.8812C69.2302 19.6352 69.8566 20.192 70.6222 20.5516C71.643 20.9808 73.3134 21.2012 75.6566 21.2012H76.9558L77.1066 20.366C76.4802 20.4124 75.877 20.4356 75.2854 20.4356C74.1254 20.424 73.151 20.3544 72.339 20.2384V17.8372H75.7958V17.0484H72.339V15.0068H75.2854V14.218H68.4646ZM76.6078 11.956H72.397C72.2346 11.4804 72.049 11.0512 71.8634 10.6684L70.9702 10.8076C71.179 11.1556 71.3762 11.5384 71.5502 11.956H67.119V14.4848H67.931V12.7216H75.7958V14.4268H76.6078V11.956Z" fill="white"/>
<path d="M38.0317 15.4971L38.6482 14.9021L41.4845 17.3187C41.4845 17.3187 43.592 15.363 47.4499 12.1216L47.6984 12.7449C47.6984 12.7449 44.4827 15.8616 41.469 19.1809L38.0317 15.4971Z" fill="white"/>
</svg>
